<mxfile host="app.diagrams.net" agent="Mozilla/5.0 (Windows NT 10.0; Win64; x64) AppleWebKit/537.36 (KHTML, like Gecko) Chrome/139.0.0.0 Safari/537.36" version="28.1.2">
  <diagram name="Page-1" id="GBF2HCRIiOExYuYlUqA8">
    <mxGraphModel dx="1042" dy="561" grid="1" gridSize="10" guides="1" tooltips="1" connect="1" arrows="1" fold="1" page="1" pageScale="1" pageWidth="850" pageHeight="1100" math="0" shadow="0">
      <root>
        <mxCell id="0" />
        <mxCell id="1" parent="0" />
        <mxCell id="zYCBiH9tZaVluhCLpLUg-2" value="" style="html=1;verticalLabelPosition=bottom;align=center;labelBackgroundColor=#ffffff;verticalAlign=top;strokeWidth=2;strokeColor=#0080F0;shadow=0;dashed=0;shape=mxgraph.ios7.icons.user;" vertex="1" parent="1">
          <mxGeometry x="20" y="150" width="90" height="80" as="geometry" />
        </mxCell>
        <mxCell id="zYCBiH9tZaVluhCLpLUg-6" style="edgeStyle=orthogonalEdgeStyle;rounded=0;orthogonalLoop=1;jettySize=auto;html=1;entryX=0;entryY=0.5;entryDx=0;entryDy=0;flowAnimation=1;" edge="1" parent="1" source="zYCBiH9tZaVluhCLpLUg-3" target="zYCBiH9tZaVluhCLpLUg-4">
          <mxGeometry relative="1" as="geometry" />
        </mxCell>
        <mxCell id="zYCBiH9tZaVluhCLpLUg-3" value="" style="points=[];aspect=fixed;html=1;align=center;shadow=0;dashed=0;fillColor=#FF6A00;strokeColor=none;shape=mxgraph.alibaba_cloud.alb_application_load_balancer_01;" vertex="1" parent="1">
          <mxGeometry x="200" y="145" width="106.12" height="90" as="geometry" />
        </mxCell>
        <mxCell id="zYCBiH9tZaVluhCLpLUg-4" value="" style="image;aspect=fixed;perimeter=ellipsePerimeter;html=1;align=center;shadow=0;dashed=0;spacingTop=3;image=img/lib/active_directory/web_server.svg;" vertex="1" parent="1">
          <mxGeometry x="420" y="150" width="64" height="80" as="geometry" />
        </mxCell>
        <mxCell id="zYCBiH9tZaVluhCLpLUg-5" style="edgeStyle=orthogonalEdgeStyle;rounded=0;orthogonalLoop=1;jettySize=auto;html=1;entryX=0.302;entryY=0.507;entryDx=0;entryDy=0;entryPerimeter=0;flowAnimation=1;" edge="1" parent="1" source="zYCBiH9tZaVluhCLpLUg-2" target="zYCBiH9tZaVluhCLpLUg-3">
          <mxGeometry relative="1" as="geometry" />
        </mxCell>
        <mxCell id="zYCBiH9tZaVluhCLpLUg-11" style="edgeStyle=orthogonalEdgeStyle;rounded=0;orthogonalLoop=1;jettySize=auto;html=1;entryX=0;entryY=0.5;entryDx=0;entryDy=0;flowAnimation=1;" edge="1" parent="1" source="zYCBiH9tZaVluhCLpLUg-7" target="zYCBiH9tZaVluhCLpLUg-10">
          <mxGeometry relative="1" as="geometry" />
        </mxCell>
        <mxCell id="zYCBiH9tZaVluhCLpLUg-7" value="" style="sketch=0;aspect=fixed;pointerEvents=1;shadow=0;dashed=0;html=1;strokeColor=none;labelPosition=center;verticalLabelPosition=bottom;verticalAlign=top;align=center;fillColor=#00188D;shape=mxgraph.mscae.enterprise.application_server" vertex="1" parent="1">
          <mxGeometry x="570" y="140" width="86" height="100" as="geometry" />
        </mxCell>
        <mxCell id="zYCBiH9tZaVluhCLpLUg-8" style="edgeStyle=orthogonalEdgeStyle;rounded=0;orthogonalLoop=1;jettySize=auto;html=1;entryX=0;entryY=0.5;entryDx=0;entryDy=0;entryPerimeter=0;flowAnimation=1;" edge="1" parent="1" source="zYCBiH9tZaVluhCLpLUg-4" target="zYCBiH9tZaVluhCLpLUg-7">
          <mxGeometry relative="1" as="geometry" />
        </mxCell>
        <mxCell id="zYCBiH9tZaVluhCLpLUg-10" value="" style="image;aspect=fixed;perimeter=ellipsePerimeter;html=1;align=center;shadow=0;dashed=0;spacingTop=3;image=img/lib/active_directory/database_server.svg;" vertex="1" parent="1">
          <mxGeometry x="740" y="145" width="73.8" height="90" as="geometry" />
        </mxCell>
        <mxCell id="zYCBiH9tZaVluhCLpLUg-12" value="&lt;b&gt;Load Balancer&lt;/b&gt;" style="text;html=1;align=center;verticalAlign=middle;resizable=0;points=[];autosize=1;strokeColor=none;fillColor=none;" vertex="1" parent="1">
          <mxGeometry x="200" y="248" width="110" height="30" as="geometry" />
        </mxCell>
        <mxCell id="zYCBiH9tZaVluhCLpLUg-13" value="&lt;b&gt;Web Server&lt;/b&gt;" style="text;html=1;align=center;verticalAlign=middle;resizable=0;points=[];autosize=1;strokeColor=none;fillColor=none;" vertex="1" parent="1">
          <mxGeometry x="394" y="248" width="90" height="30" as="geometry" />
        </mxCell>
        <mxCell id="zYCBiH9tZaVluhCLpLUg-14" value="&lt;b&gt;Application Server&lt;/b&gt;" style="text;html=1;align=center;verticalAlign=middle;resizable=0;points=[];autosize=1;strokeColor=none;fillColor=none;" vertex="1" parent="1">
          <mxGeometry x="540" y="248" width="130" height="30" as="geometry" />
        </mxCell>
        <mxCell id="zYCBiH9tZaVluhCLpLUg-15" value="&lt;b&gt;DB Server&lt;/b&gt;" style="text;html=1;align=center;verticalAlign=middle;resizable=0;points=[];autosize=1;strokeColor=none;fillColor=none;" vertex="1" parent="1">
          <mxGeometry x="733.8" y="248" width="80" height="30" as="geometry" />
        </mxCell>
      </root>
    </mxGraphModel>
  </diagram>
</mxfile>
